<?xml version="1.0" encoding="UTF-8" standalone="no"?>
<svg
   xmlns:dc="http://purl.org/dc/elements/1.1/"
   xmlns:cc="http://creativecommons.org/ns#"
   xmlns:rdf="http://www.w3.org/1999/02/22-rdf-syntax-ns#"
   xmlns:svg="http://www.w3.org/2000/svg"
   xmlns="http://www.w3.org/2000/svg"
   xmlns:sodipodi="http://sodipodi.sourceforge.net/DTD/sodipodi-0.dtd"
   xmlns:inkscape="http://www.inkscape.org/namespaces/inkscape"
   width="48"
   height="48"
   id="svg2898"
   version="1.1"
   inkscape:version="1.0.2 (e86c870879, 2021-01-15)"
   sodipodi:docname="angle.svg"
   inkscape:export-filename="/home/prs/git/crystalexplorer/icons/angle.png"
   inkscape:export-xdpi="352"
   inkscape:export-ydpi="352">
  <defs
     id="defs2900">
    <inkscape:perspective
       sodipodi:type="inkscape:persp3d"
       inkscape:vp_x="0 : 526.18109 : 1"
       inkscape:vp_y="0 : 1000 : 0"
       inkscape:vp_z="744.09448 : 526.18109 : 1"
       inkscape:persp3d-origin="372.04724 : 350.78739 : 1"
       id="perspective2906" />
    <inkscape:perspective
       id="perspective3730"
       inkscape:persp3d-origin="0.5 : 0.33333333 : 1"
       inkscape:vp_z="1 : 0.5 : 1"
       inkscape:vp_y="0 : 1000 : 0"
       inkscape:vp_x="0 : 0.5 : 1"
       sodipodi:type="inkscape:persp3d" />
    <filter
       inkscape:collect="always"
       style="color-interpolation-filters:sRGB"
       id="filter2178"
       x="-0.043092435"
       width="1.0861849"
       y="-0.043549982"
       height="1.0871">
      <feGaussianBlur
         inkscape:collect="always"
         stdDeviation="0.77506084"
         id="feGaussianBlur2180" />
    </filter>
  </defs>
  <sodipodi:namedview
     id="base"
     pagecolor="#ffffff"
     bordercolor="#666666"
     borderopacity="1.0"
     inkscape:pageopacity="0.0"
     inkscape:pageshadow="2"
     inkscape:zoom="10.104167"
     inkscape:cx="19.283383"
     inkscape:cy="20.082324"
     inkscape:document-units="px"
     inkscape:current-layer="layer1"
     showgrid="false"
     inkscape:window-width="2215"
     inkscape:window-height="1081"
     inkscape:window-x="64"
     inkscape:window-y="20"
     inkscape:window-maximized="0"
     inkscape:object-nodes="false"
     inkscape:document-rotation="0" />
  <metadata
     id="metadata2903">
    <rdf:RDF>
      <cc:Work
         rdf:about="">
        <dc:format>image/svg+xml</dc:format>
        <dc:type
           rdf:resource="http://purl.org/dc/dcmitype/StillImage" />
        <dc:title />
      </cc:Work>
    </rdf:RDF>
  </metadata>
  <g
     inkscape:label="Layer 1"
     inkscape:groupmode="layer"
     id="layer1"
     transform="translate(0,-1004.3622)">
    <g
       id="g3771"
       transform="translate(-0.79175255,2.1773195)"
       style="fill:#808080;fill-opacity:1;stroke:none;filter:url(#filter2178)">
      <path
         style="fill:#808080;fill-opacity:1;stroke:none;stroke-width:0;stroke-linecap:butt;stroke-linejoin:miter;stroke-miterlimit:4;stroke-opacity:1;stroke-dasharray:none;stroke-dashoffset:0"
         d="m 2.7680959,1006.9025 0.9837897,3.5184 8.8731804,31.734 -5.1706065,-2.9109 -1.6715779,3.0214 5.1357734,2.9206 -4.0059425,1.1201 0.9253104,3.3093 6.4095631,-1.7921 3.274443,-0.9156 0.03711,-0.01 6.374686,-1.7825 -0.92531,-3.3093 -4.005942,1.1201 2.87611,-5.1609 -2.996254,-1.7162 -2.910931,5.1707 -4.163858,-14.8916 -4.163916,-14.8918 15.047651,3.8486 15.047697,3.8487 -5.119876,3.0465 1.766993,2.9614 5.094677,-3.0022 -1.011582,4.0386 3.314266,0.8386 1.656134,-6.4347 0.848244,-3.2794 0.02534,-0.044 1.621245,-6.4251 -3.314224,-0.8385 -1.05614,4.0135 -3.027033,-5.0501 -2.971026,1.7321 3.036852,5.085 -32.0402093,-8.2053 -3.7921363,-0.6673 3.37e-5,-10e-5 z"
         id="path3773"
         sodipodi:nodetypes="cccccccccccccccccccccccccccccccccccccc"
         inkscape:connector-curvature="0" />
      <path
         sodipodi:type="arc"
         style="fill:#808080;stroke:none;stroke-width:3.19685054;stroke-miterlimit:4;stroke-opacity:1;stroke-dasharray:none;fill-opacity:1"
         id="path3775"
         sodipodi:cx="42.309277"
         sodipodi:cy="38.944328"
         sodipodi:rx="10.045361"
         sodipodi:ry="10.045361"
         d="m 52.354637,38.944328 c 0,5.160819 -3.910603,9.481987 -9.04581,9.995508"
         transform="matrix(1.2512315,0,0,1.2512315,-44.328392,964.64002)"
         sodipodi:start="0"
         sodipodi:end="1.4711277"
         sodipodi:open="true" />
    </g>
    <g
       id="g2989"
       transform="matrix(1.2330056,0,0,1.2330056,6.5592793,-242.56923)"
       style="stroke:#000000;stroke-opacity:1;stroke-width:2.51418161;stroke-miterlimit:4;stroke-dasharray:none">
      <path
         transform="matrix(0.57497182,0,0,0.64637274,9.7616195,1020.8093)"
         d="m 36.123712,30.97732 c 0,5.411252 -3.544797,9.797938 -7.917526,9.797938 -4.372728,0 -7.917525,-4.386686 -7.917525,-9.797938 0,-5.411252 3.544797,-9.797939 7.917525,-9.797939 4.372729,0 7.917526,4.386687 7.917526,9.797939 z"
         sodipodi:ry="9.7979383"
         sodipodi:rx="7.9175258"
         sodipodi:cy="30.97732"
         sodipodi:cx="28.206186"
         id="path3836"
         style="fill:none;stroke:#000000;stroke-width:4.12412527;stroke-linecap:butt;stroke-linejoin:miter;stroke-miterlimit:4;stroke-opacity:1;stroke-dasharray:none;stroke-dashoffset:0"
         sodipodi:type="arc" />
      <path
         id="path3838"
         d="m 21.343685,1040.7333 9.964177,0"
         style="fill:none;stroke:#000000;stroke-width:2.51418161;stroke-linecap:butt;stroke-linejoin:miter;stroke-opacity:1;stroke-miterlimit:4;stroke-dasharray:none"
         inkscape:connector-curvature="0" />
    </g>
    <g
       id="g3767">
      <path
         inkscape:connector-curvature="0"
         sodipodi:nodetypes="cccccccccccccccccccccccccccccccccccccc"
         id="path3825"
         d="m 2.7680959,1006.9025 0.9837897,3.5184 8.8731804,31.734 -5.1706065,-2.9109 -1.6715779,3.0214 5.1357734,2.9206 -4.0059425,1.1201 0.9253104,3.3093 6.4095631,-1.7921 3.274443,-0.9156 0.03711,-0.01 6.374686,-1.7825 -0.92531,-3.3093 -4.005942,1.1201 2.87611,-5.1609 -2.996254,-1.7162 -2.910931,5.1707 -4.163858,-14.8916 -4.163916,-14.8918 15.047651,3.8486 15.047697,3.8487 -5.119876,3.0465 1.766993,2.9614 5.094677,-3.0022 -1.011582,4.0386 3.314266,0.8386 1.656134,-6.4347 0.848244,-3.2794 0.02534,-0.044 1.621245,-6.4251 -3.314224,-0.8385 -1.05614,4.0135 -3.027033,-5.0501 -2.971026,1.7321 3.036852,5.085 -32.0402093,-8.2053 -3.7921363,-0.6673 3.37e-5,-10e-5 z"
         style="fill:#000000;fill-opacity:1;stroke:#000000;stroke-width:0;stroke-linecap:butt;stroke-linejoin:miter;stroke-miterlimit:4;stroke-opacity:1;stroke-dasharray:none;stroke-dashoffset:0" />
      <path
         sodipodi:open="true"
         sodipodi:end="1.4711277"
         sodipodi:start="0"
         transform="matrix(1.2512315,0,0,1.2512315,-44.328392,964.64002)"
         d="m 52.354637,38.944328 a 10.045361,10.045361 0 0 1 -9.04581,9.995508"
         sodipodi:ry="10.045361"
         sodipodi:rx="10.045361"
         sodipodi:cy="38.944328"
         sodipodi:cx="42.309277"
         id="path2993"
         style="fill:none;stroke:#000000;stroke-width:3.19685046;stroke-miterlimit:4;stroke-opacity:1;stroke-dasharray:none"
         sodipodi:type="arc" />
    </g>
  </g>
</svg>
