<?xml version="1.0" encoding="UTF-8" standalone="no"?>
<svg
   xmlns:dc="http://purl.org/dc/elements/1.1/"
   xmlns:cc="http://creativecommons.org/ns#"
   xmlns:rdf="http://www.w3.org/1999/02/22-rdf-syntax-ns#"
   xmlns:svg="http://www.w3.org/2000/svg"
   xmlns="http://www.w3.org/2000/svg"
   xmlns:xlink="http://www.w3.org/1999/xlink"
   xmlns:sodipodi="http://sodipodi.sourceforge.net/DTD/sodipodi-0.dtd"
   xmlns:inkscape="http://www.inkscape.org/namespaces/inkscape"
   width="48"
   height="48"
   id="svg2898"
   version="1.1"
   inkscape:version="1.0.2 (e86c870879, 2021-01-15)"
   sodipodi:docname="distance.svg"
   inkscape:export-filename="/home/prs/git/crystalexplorer/icons/distance.png"
   inkscape:export-xdpi="352"
   inkscape:export-ydpi="352">
  <defs
     id="defs2900">
    <linearGradient
       inkscape:collect="always"
       id="linearGradient842">
      <stop
         style="stop-color:#000000;stop-opacity:1;"
         offset="0"
         id="stop838" />
      <stop
         style="stop-color:#000000;stop-opacity:0;"
         offset="1"
         id="stop840" />
    </linearGradient>
    <inkscape:perspective
       sodipodi:type="inkscape:persp3d"
       inkscape:vp_x="0 : 526.18109 : 1"
       inkscape:vp_y="0 : 1000 : 0"
       inkscape:vp_z="744.09448 : 526.18109 : 1"
       inkscape:persp3d-origin="372.04724 : 350.78739 : 1"
       id="perspective2906" />
    <inkscape:perspective
       id="perspective3730"
       inkscape:persp3d-origin="0.5 : 0.33333333 : 1"
       inkscape:vp_z="1 : 0.5 : 1"
       inkscape:vp_y="0 : 1000 : 0"
       inkscape:vp_x="0 : 0.5 : 1"
       sodipodi:type="inkscape:persp3d" />
    <linearGradient
       inkscape:collect="always"
       xlink:href="#linearGradient842"
       id="linearGradient844"
       x1="31.613796"
       y1="1039.2485"
       x2="45.54925"
       y2="1039.2485"
       gradientUnits="userSpaceOnUse" />
    <filter
       inkscape:collect="always"
       style="color-interpolation-filters:sRGB"
       id="filter1046"
       x="-0.043139106"
       width="1.0862782"
       y="-0.043139855"
       height="1.0862797">
      <feGaussianBlur
         inkscape:collect="always"
         stdDeviation="0.83779037"
         id="feGaussianBlur1048" />
    </filter>
  </defs>
  <sodipodi:namedview
     id="base"
     pagecolor="#ffffff"
     bordercolor="#666666"
     borderopacity="1.0"
     inkscape:pageopacity="0.0"
     inkscape:pageshadow="2"
     inkscape:zoom="14.28945"
     inkscape:cx="33.564373"
     inkscape:cy="21.277333"
     inkscape:document-units="px"
     inkscape:current-layer="layer1"
     showgrid="false"
     inkscape:window-width="2127"
     inkscape:window-height="1227"
     inkscape:window-x="64"
     inkscape:window-y="20"
     inkscape:window-maximized="0"
     inkscape:document-rotation="0" />
  <metadata
     id="metadata2903">
    <rdf:RDF>
      <cc:Work
         rdf:about="">
        <dc:format>image/svg+xml</dc:format>
        <dc:type
           rdf:resource="http://purl.org/dc/dcmitype/StillImage" />
        <dc:title />
      </cc:Work>
    </rdf:RDF>
  </metadata>
  <g
     inkscape:label="Layer 1"
     inkscape:groupmode="layer"
     id="layer1"
     transform="translate(0,-1004.3622)">
    <path
       inkscape:connector-curvature="0"
       sodipodi:nodetypes="ccccccccccccccccccccccccccccccc"
       id="path3006"
       d="m 11.570064,1044.6341 6.175568,0 -0.02662,3.5935 -6.148947,0.026 3.061164,3.0612 -2.528831,2.5289 -4.8712444,-4.8713 -0.02662,-0.027 -2.5021694,-2.5021 -4.89786408,-4.8979 2.52883158,-2.5288 3.0611649,3.0611 0.02662,-6.1489 3.593541,-0.026 0,6.1755 25.6338864,-25.6338 -6.175568,0 0.02662,-3.5935 6.148949,-0.026 -3.061164,-3.0612 2.528831,-2.5289 4.897864,4.8979 2.502169,2.5021 0.02662,0.027 4.871245,4.8713 -2.52883,2.5288 -3.061165,-3.0611 -0.02662,6.1489 -3.593542,0.027 0,-6.1755 -25.633887,25.6338 z"
       style="fill:#7f7f7f;fill-opacity:1;stroke:#000000;stroke-width:0;stroke-linecap:butt;stroke-linejoin:miter;stroke-miterlimit:4;stroke-opacity:1;stroke-dasharray:none;stroke-dashoffset:0;filter:url(#filter1046)" />
    <text
       xml:space="preserve"
       style="font-style:normal;font-weight:normal;line-height:0%;font-family:'Arial,sans-serif';fill:#000000;fill-opacity:1;stroke:#000000;stroke-opacity:1;"
       x="30.040663"
       y="1049.8776"
       id="text3686"><tspan
         sodipodi:role="line"
         id="tspan3688"
         x="30.040663"
         y="1049.8776"
         style="font-size:28.5113px;line-height:1.25;fill-opacity:1;fill:#000000;stroke:#000000;stroke-opacity:1;">d</tspan></text>
    <path
       style="fill:#000000;fill-opacity:1;stroke:#000000;stroke-width:0;stroke-linecap:butt;stroke-linejoin:miter;stroke-miterlimit:4;stroke-opacity:1;stroke-dasharray:none;stroke-dashoffset:0"
       d="m 12.460786,1042.3578 6.175568,0 -0.02662,3.5935 -6.148947,0.026 3.061164,3.0612 -2.528831,2.5289 -4.8712448,-4.8713 -0.02662,-0.027 -2.5021694,-2.5021 -4.89786406,-4.8979 2.52883156,-2.5288 3.0611649,3.0611 0.02662,-6.1489 3.593541,-0.026 0,6.1755 25.6338868,-25.6338 -6.175568,0 0.02662,-3.5935 6.148949,-0.026 -3.061164,-3.0612 2.528831,-2.5289 4.897864,4.8979 2.502169,2.5021 0.02662,0.027 4.871245,4.8713 -2.52883,2.5288 -3.061165,-3.0611 -0.02662,6.1489 -3.593542,0.027 0,-6.1755 -25.633887,25.6338 z"
       id="rect3750"
       sodipodi:nodetypes="ccccccccccccccccccccccccccccccc"
       inkscape:connector-curvature="0" />
  </g>
</svg>
