<?xml version="1.0" encoding="UTF-8" standalone="no"?>
<svg
   xmlns:dc="http://purl.org/dc/elements/1.1/"
   xmlns:cc="http://creativecommons.org/ns#"
   xmlns:rdf="http://www.w3.org/1999/02/22-rdf-syntax-ns#"
   xmlns:svg="http://www.w3.org/2000/svg"
   xmlns="http://www.w3.org/2000/svg"
   xmlns:sodipodi="http://sodipodi.sourceforge.net/DTD/sodipodi-0.dtd"
   xmlns:inkscape="http://www.inkscape.org/namespaces/inkscape"
   width="48"
   height="48"
   id="svg2"
   version="1.1"
   inkscape:version="1.0.2 (e86c870879, 2021-01-15)"
   sodipodi:docname="fingerprint.svg"
   inkscape:output_extension="org.inkscape.output.svg.inkscape"
   inkscape:export-filename="/home/prs/git/crystalexplorer/icons/fingerprint.png"
   inkscape:export-xdpi="256"
   inkscape:export-ydpi="256">
  <defs
     id="defs4">
    <inkscape:perspective
       sodipodi:type="inkscape:persp3d"
       inkscape:vp_x="0 : 526.18109 : 1"
       inkscape:vp_y="0 : 1000 : 0"
       inkscape:vp_z="744.09448 : 526.18109 : 1"
       inkscape:persp3d-origin="372.04724 : 350.78739 : 1"
       id="perspective10" />
    <inkscape:perspective
       id="perspective2824"
       inkscape:persp3d-origin="0.5 : 0.33333333 : 1"
       inkscape:vp_z="1 : 0.5 : 1"
       inkscape:vp_y="0 : 1000 : 0"
       inkscape:vp_x="0 : 0.5 : 1"
       sodipodi:type="inkscape:persp3d" />
  </defs>
  <sodipodi:namedview
     id="base"
     pagecolor="#ffffff"
     bordercolor="#666666"
     borderopacity="1.0"
     inkscape:pageopacity="0"
     inkscape:pageshadow="2"
     inkscape:zoom="6.4781462"
     inkscape:cx="-57.73587"
     inkscape:cy="55.488559"
     inkscape:document-units="px"
     inkscape:current-layer="layer1"
     showgrid="false"
     inkscape:window-width="2042"
     inkscape:window-height="1156"
     inkscape:window-x="48"
     inkscape:window-y="0"
     inkscape:window-maximized="0"
     inkscape:document-rotation="0" />
  <metadata
     id="metadata7">
    <rdf:RDF>
      <cc:Work
         rdf:about="">
        <dc:format>image/svg+xml</dc:format>
        <dc:type
           rdf:resource="http://purl.org/dc/dcmitype/StillImage" />
        <dc:title />
      </cc:Work>
    </rdf:RDF>
  </metadata>
  <g
     inkscape:label="Capa 1"
     inkscape:groupmode="layer"
     id="layer1"
     transform="translate(-156.01726,-727.74714)">
    <rect
       style="fill:#ffb500;fill-opacity:1;fill-rule:nonzero;stroke:none"
       id="rect6429"
       width="48"
       height="48"
       x="156.09869"
       y="727.93256" />
    <path
       style="fill:#000000"
       d="m 165.03676,783.77925 c -2.15975,-1.66473 -3.51822,-6.92666 -0.38477,-2.54701 0.6507,0.60834 3.04889,2.96485 0.38477,2.54701 z m 4.68048,-0.53932 c -4.05401,-2.18216 -6.08896,-6.84925 -7.78259,-10.89047 -1.5886,-5.19029 -1.27706,-10.53149 -2.68025,-15.78107 -1.1292,-1.72055 -0.25359,-9.17012 1.43963,-7.10391 -1.29804,6.49037 1.34457,12.87384 1.85421,19.31199 1.40735,4.52735 3.03847,9.16151 6.50803,12.57969 0.91137,0.70984 2.92459,3.91724 0.66097,1.88377 z m 8.65861,-0.24271 c -0.74448,-2.17588 1.37225,-0.11233 0,0 z m -7.45479,-2.28174 c -3.71781,-3.81331 -5.57497,-9.15172 -7.00013,-14.15152 -1.05084,-5.10534 -2.29452,-10.19422 -1.89237,-15.4321 0.19672,-4.37432 1.38736,-10.035 4.6341,-12.72796 -1.27345,4.38728 -4.16679,9.6376 -3.53447,14.86448 0.23626,4.73769 0.93529,9.18405 2.42889,13.7488 1.42778,4.64938 3.26844,9.24334 6.221,13.15353 4.07362,1.20056 0.36207,3.73407 -0.85702,0.54477 z m 5.82651,1.36879 c -3.94307,-2.25496 4.08732,-0.80393 0,0 z m 3.70432,-0.77046 c -5.04158,-2.66042 -6.52789,-8.72798 -8.85238,-13.31398 1.77828,-4.7701 5.01308,5.78718 5.63056,8.09561 0.63888,2.73784 4.90697,4.68742 5.61286,5.61182 -0.79751,0.11176 -1.71311,0.11426 -2.39104,-0.39345 z m 6.03079,-0.56452 c 0.12486,-1.06648 1.02113,0.64154 0,0 z m -12.96136,-1.09417 c -3.19973,-3.70803 -4.44613,-8.50911 -5.98771,-12.95258 -0.74287,-4.55371 2.6272,-1.31673 2.03058,1.32309 0.55989,4.1962 5.41375,8.30663 4.45617,11.99105 -0.16629,-0.12043 -0.33269,-0.24104 -0.49904,-0.36156 z m 10.59019,0.11773 c -2.43785,-0.64036 -7.96923,-5.62606 -5.28812,-6.3943 0.59055,2.6019 5.93875,4.23764 5.28812,6.3943 z m 5.25212,0 c -4.58694,-1.3967 -7.34596,-5.76485 -10.9618,-8.57115 3.57815,-0.2039 6.96641,5.35671 10.73626,7.19937 0.56635,0.40196 1.96418,2.59889 0.22554,1.37178 z m -28.38435,-1.54514 c -2.09505,-6.21241 4.84631,2.05776 0,0 z m 30.7473,-0.5736 c -2.32237,-0.57571 -8.59229,-4.89686 -5.74544,-5.56986 2.35065,1.60559 6.24009,4.60402 7.22266,5.9182 -0.50018,0.12544 -1.12314,0.0832 -1.47722,-0.34834 z m -33.55782,0.0135 c 0.28811,-1.14291 1.10046,0.8576 0,0 z m -1.30837,-1.33149 c -2.56694,-3.85269 -3.16811,-8.66468 -2.55336,-13.08478 -0.37169,-4.27242 1.82689,-8.13579 1.76737,-12.41224 1.51994,-4.43935 1.55572,-9.37766 4.05727,-13.50864 1.41986,-2.54124 3.56091,-5.49757 6.58801,-5.11988 -0.5285,-3.29172 2.78004,-0.36023 4.13263,-3.46537 4.8185,-2.95409 10.40923,-4.14136 15.89948,-5.14366 7.82907,1.84891 13.58727,7.84229 18.11969,14.14597 3.67374,3.79377 5.61098,8.92924 9.46333,12.56132 1.57688,2.16371 0.11407,5.56008 -1.37623,1.6318 -2.68406,-3.83217 -6.58439,-6.99834 -8.35989,-11.29894 -2.72934,-4.49183 -6.00854,-8.25254 -9.81551,-11.80007 -4.39747,-3.02841 -10.19959,-4.84041 -15.33905,-2.42204 -6.31366,1.60836 -11.88543,5.59763 -15.08435,11.31105 -3.03954,1.35035 3.9262,-7.03782 -0.97236,-2.87295 -3.43402,3.49945 -3.76119,8.76819 -5.30117,13.19912 -0.54532,5.20638 -2.30785,9.74467 -2.48403,14.85467 -0.21558,4.74439 1.03192,9.54979 2.58841,13.85719 l -0.41108,0.0457 -0.91906,-0.47811 -1e-4,0 z m 39.30371,0.55966 c -4.49829,-2.26951 -8.33682,-5.66268 -11.71207,-9.27209 -2.1977,-2.56737 1.65403,-6.24067 2.20929,-1.87317 2.22002,5.19946 8.20137,6.73135 11.05106,11.1347 l -0.42393,0.1555 -1.12435,-0.14509 0,0 z m 4.60458,-1.28717 c -0.9915,-3.29201 3.45458,0.40796 0,0 z m -40.2647,-1.54973 c -0.42578,-1.2321 1.21854,0.41195 0,0 z m 35.98628,-1.32282 c -4.07415,-2.40979 -7.45202,-5.78011 -9.35358,-10.12739 -2.76606,-5.15291 -4.47202,-11.27423 -4.33576,-17.26498 2.07313,-1.53636 1.41907,5.16988 2.57818,6.51424 0.43916,4.94855 2.89244,7.89129 4.52065,12.53308 2.6572,2.97292 6.84665,6.73143 10.19836,9.37262 -1.06643,1.35328 -2.84369,0.0193 -3.60785,-1.02757 z m -37.89635,0.12968 c -1.80913,-4.5772 -0.79068,-9.63933 -1.11212,-14.42552 2.13284,-0.7752 0.3305,6.3648 1.74487,8.63979 -0.47461,1.33559 3.09325,8.2951 -0.63275,5.78573 z m 44.34884,0.19172 c -3.99476,-2.58673 -7.70267,-5.28985 -10.26055,-8.89945 -2.436,-4.40011 -5.1205,-8.99697 -6.02371,-14.0023 3.8268,-0.80651 2.12091,7.66234 5.9096,8.73357 1.11656,5.29417 6.23708,10.25948 11.27679,12.70287 1.86092,1.07362 1.10895,2.5419 -0.90213,1.46531 z m -19.45042,-1.36785 c -3.43809,-1.5488 -7.12977,-8.75052 -4.17069,-10.88215 2.21491,3.04233 1.36436,7.6471 5.26095,9.7999 -0.0154,0.31173 -0.73441,2.0133 -1.09026,1.08225 z m -31.85373,-0.52513 c -1.4219,-4.17398 0.67456,-8.62751 0.20739,-12.83833 -0.18209,-5.21632 1.8092,-10.29705 3.39101,-15.39221 1.45622,-3.54748 -0.69419,-3.67039 -1.55146,-0.39879 -1.30049,4.05725 -2.77457,7.98732 -3.3993,12.30615 -2.32489,2.91733 2.93525,7.15981 -1.50873,9.4682 -4.72539,-4.67473 1.87761,-11.01581 2.17113,-16.47824 0.9571,-4.42961 2.37551,-9.05999 6.4344,-11.5978 1.69519,-1.91075 5.64987,-7.05624 6.85043,-5.90569 -3.76714,4.05301 -8.05191,7.95066 -8.26747,13.89176 -1.24342,5.36745 -3.02397,10.51038 -3.03994,16.29798 -0.27416,3.56223 -0.10444,7.24195 -1.28746,10.64697 z m -2.27821,-9.36317 c 1.23479,-3.70261 -3.92078,1.67586 0,0 z m 27.53163,7.75922 c -2.82551,-3.69211 -3.11841,-8.28593 -2.92962,-12.69503 -0.54511,-2.45189 0.29345,-10.78295 0.95618,-4.13702 0.3539,4.82372 0.51738,10.32595 3.02536,14.35047 0.80546,0.79547 0.55321,5.32182 -1.05192,2.48158 z m 28.25772,0.7615 c 1.37421,-4.25585 -5.38982,-6.89625 -6.65505,-10.97013 -2.43135,-3.9336 -4.89692,-7.6485 -6.05594,-12.13797 -2.1275,-3.5066 -5.58711,-10.40145 -10.49918,-7.14283 -4.98028,3.11909 -3.66521,9.70483 -3.44712,14.65237 1.14934,1.9626 0.83942,7.09507 -1.43096,3.42997 -0.0956,-4.6746 -0.81397,-9.46554 0.20385,-14.09114 1.20614,-3.75314 5.76583,-7.88447 9.88661,-6.06475 4.80628,3.82834 6.98822,9.76092 9.56861,15.1491 2.55047,4.6394 5.22964,9.13981 8.90573,13.01632 1.88102,0.97471 2.36133,4.76034 -0.47655,4.15906 z m -2.30329,-0.95001 c -6.94113,-4.55228 -10.015,-12.769 -13.2172,-20.05118 -0.54889,-3.91214 -5.88737,-10.40294 -8.21516,-4.13236 -1.28318,5.159 1.58338,9.94694 1.53308,14.82064 -2.57808,0.90602 -1.79278,-6.30957 -2.97515,-8.43869 -0.88685,-4.26547 0.9444,-12.94674 6.79158,-9.73046 4.31422,3.58389 4.55296,9.58785 7.62338,14.02076 2.44561,5.19372 6.00072,9.91808 10.31884,13.65122 -0.34404,0.58265 -1.38711,-0.16629 -1.85937,-0.13989 z m 5.4888,-3.43161 c -2.93824,-3.93562 -6.99075,-7.0188 -8.85525,-11.70806 -3.2668,-4.94132 -4.78119,-11.00202 -8.86415,-15.36973 -3.33157,-2.23225 -8.16579,-7.1563 -12.05139,-3.27711 -3.3551,1.40715 -6.52181,7.90851 -8.19801,7.95697 1.09722,-4.89866 5.58545,-8.70192 10.03293,-10.6013 4.62994,-1.0625 8.0054,3.04113 11.6886,5.04242 6.44219,7.15834 8.02136,17.63311 15.29913,24.2189 0.48054,0.90924 5.01061,6.56555 0.94814,3.73791 z m -59.13116,0.43008 c 0.57779,-0.84382 0.49175,1.10254 0,0 z m -0.67414,-0.46549 c -0.12525,-1.665 1.16314,0.90919 0,0 z m 22.36355,-0.11215 c -2.18922,-4.5887 -3.22281,-9.56172 -3.00432,-14.71499 -1.36356,-2.61978 3.74257,-9.12355 1.91724,-3.3545 -0.95352,4.03407 -0.87656,8.5724 -0.0863,12.56075 4.27998,1.5304 -1.6046,-8.67509 2.359,-7.28333 0.008,3.47961 0.52806,8.16017 0.18228,11.01507 1.20864,1.04053 -0.40493,1.80086 -1.36775,1.777 z m -4.79984,-2.54688 c -0.95107,-5.33778 -2.04371,-10.8515 -0.85679,-16.33843 1.70931,-5.95366 5.58079,-11.43636 10.68358,-14.9114 4.07912,-2.06322 9.16014,-4.17924 13.3836,-1.17414 2.52674,1.279 7.29298,5.76515 5.53648,7.75396 -2.24296,-2.72194 -5.911,-4.67574 -8.56466,-5.91805 1.83953,-0.0877 5.30348,0.89042 1.61141,-1.06194 -3.52491,-1.62372 -7.67199,-0.52111 -10.87567,1.47502 -3.61852,1.666 -6.04463,5.3201 -8.04623,8.68559 -3.3371,3.98372 -2.8464,10.20273 -2.19298,15.24704 -0.52544,1.37933 2.65703,8.49642 -0.67874,6.24235 z m 16.38411,-0.0347 c -1.45792,-4.25764 5.21919,0.33761 0.48106,0.39449 -0.16031,-0.1316 -0.32071,-0.263 -0.48106,-0.39449 z m 27.14221,-1.09448 c -3.12827,-4.18165 -6.18639,-8.44394 -8.9478,-12.7912 -1.11549,-2.59119 -5.47341,-8.56607 -3.68577,-9.75763 3.1295,3.44555 4.79686,7.96189 7.28752,12.08329 1.9907,3.77631 5.21438,6.7794 7.42886,10.3627 -0.50914,0.5207 -1.44806,0.0938 -2.08281,0.10289 z m 3.05161,-1.40934 c -0.24206,-1.6701 1.21216,0.44328 0,0 z m -67.76033,-1.471 c -1.18285,-3.44205 4.27327,-9.883 1.91163,-10.98477 -0.73632,2.44808 -3.85371,5.7823 -2.05237,1.04649 3.37772,-2.7195 4.52527,-7.33851 7.19738,-10.21775 -1.75565,5.79547 -3.90946,11.52615 -5.31176,17.45083 -0.36832,1.00175 -0.74663,2.14976 -1.74488,2.7052 z m 67.02889,-0.77044 c -1.95463,-4.14242 -5.8757,-7.07308 -7.52526,-11.19158 -3.97239,-3.34652 -4.49084,-8.90537 -8.3279,-12.38296 -3.33134,-3.56071 -7.25783,-7.66334 -12.62754,-7.05818 -5.05953,0.89037 -10.70876,3.35068 -13.45603,7.83148 -1.7727,2.9981 -3.90011,1.01091 -1.1605,-1.05246 3.84686,-5.08412 10.3748,-7.40549 16.53279,-7.98579 5.82851,0.86748 10.54265,4.69139 13.91026,9.34102 3.04172,3.83167 4.77961,8.50253 8.04553,12.19633 0.41347,3.14206 7.75955,7.76026 4.60865,10.30214 z m -67.8299,-4.48632 c -0.3182,-1.27592 1.05786,0.30808 0,0 z m 27.18358,-3.46988 c -0.42524,-1.69672 1.12684,-9.12359 1.336,-3.68872 -0.17746,0.73217 -0.0931,4.56515 -1.336,3.68872 z m 44.50575,-1.75791 c -4.97839,-6.52306 -10.14078,-12.91348 -15.42566,-19.17805 -3.87663,-3.367 -8.22982,-7.04716 -13.65585,-7.11375 -4.47205,-1.6279 -9.24927,-1.32157 -13.57166,0.46145 -4.66237,1.77542 -8.98133,4.20296 -12.63083,7.64948 -2.80185,1.62079 -5.92666,8.16073 -7.83337,6.83103 4.41475,-5.87037 10.02627,-11.0178 16.64979,-14.25704 7.75913,-3.06868 16.66746,-3.7001 24.46169,-0.38524 3.9407,1.69795 6.96528,5.10018 9.98502,7.99958 3.75274,3.70454 6.39856,8.21006 9.80972,12.10865 0.0518,1.84174 6.97248,6.75083 2.21115,5.88389 z m -29.56589,-0.45338 c -1.79617,-2.45387 -0.40015,-5.01988 0.74538,-1.32187 0.43564,0.47478 0.2344,2.61049 -0.74538,1.32187 z m -42.91178,-1.08918 c 4.99233,-5.9753 7.06424,-14.35469 13.93538,-18.71153 0.74416,2.4743 -6.45952,6.42941 -7.49429,10.44821 -1.68546,2.9724 -2.45288,7.5756 -6.44109,8.26332 z m 16.41161,0.0763 c -0.72768,-3.47595 3.71184,0.64876 0,0 z m 14.96262,-0.87966 c -1.65186,-2.14062 2.86253,-9.9899 2.82297,-6.03678 -1.18891,1.89151 -1.38109,4.29766 -2.82297,6.03678 z m -14.19216,-1.43167 c 0.11889,-2.44495 3.62473,-9.05653 1.99197,-3.03843 -0.35642,1.00957 -0.41326,3.23584 -1.99197,3.03843 z m 56.24655,-1.18227 c -5.41444,-7.54318 -11.2697,-15.1043 -18.88446,-20.54169 -6.36933,-3.96162 -14.3518,-5.32198 -21.58456,-3.29103 -2.64641,0.58406 -5.60098,-0.24221 -1.49841,-0.94521 4.44333,-0.3521 8.78164,-1.82936 13.25214,-1.03277 7.39046,1.32109 14.4431,5.36506 19.03777,11.35944 3.9088,4.35522 8.00746,8.63069 11.18353,13.55316 0.99629,1.43766 -0.78258,1.42042 -1.50601,0.8981 z m -73.08403,-0.24932 c 0.0247,-4.87197 4.26635,-8.55806 6.71487,-12.4533 4.52403,-5.83 10.34927,-10.72355 17.02528,-13.87524 3.19763,0.28446 -4.19891,3.79812 -5.97478,4.93006 -3.83975,2.42157 -6.26869,6.43194 -9.90586,9.09341 -2.09311,3.76439 -5.11414,7.01613 -6.52669,11.11534 -0.12853,0.54608 -0.63212,1.36238 -1.33282,1.18973 z m 29.08438,-0.45486 c -1.02664,-2.83272 2.23531,1.59474 0,0 z m 45.93067,-3.30522 c -4.91428,-6.69534 -10.66836,-12.91479 -17.24631,-17.99566 -4.2747,-2.06609 -8.40887,-5.06165 -13.35668,-5.19305 -3.15035,-2.0525 -7.40425,1.81452 -9.45674,-0.24457 3.92718,-3.0367 9.34352,-1.13852 13.97634,-0.16822 5.6196,1.99412 11.29815,4.49814 15.34757,9.0737 4.80848,3.42579 7.36593,9.07811 11.54673,13.12644 0.60461,0.65294 0.32659,1.95065 -0.81091,1.40126 z m -76.08135,-1.54062 c -0.77377,-2.47748 6.05482,-8.40623 3.14037,-3.71469 -1.27186,0.98982 -1.05649,3.91911 -3.14037,3.71469 z m 35.72421,-0.50671 c 1.24512,-2.46241 8.39732,-2.37466 2.93856,-0.33495 -0.70056,0.24013 -2.88463,2.11238 -2.93856,0.33495 z m 41.13481,-1.66898 c -1.68841,-3.40358 -6.17215,-7.75142 -7.03493,-9.85241 3.68452,1.09277 7.57704,4.79511 9.71458,7.23671 -1.60046,-1.33621 -6.03363,-2.68022 -2.68391,0.36636 0.97712,1.02161 3.24692,4.68953 0.004,2.24934 z m -77.25382,-2.70268 c -2.1676,-2.72414 6.28264,-6.48081 2.34044,-2.30406 -0.5311,0.74497 -0.88728,3.81662 -2.34044,2.30406 z m 5.12071,-1.68707 c -1.1958,-2.47059 4.58479,-4.46398 1.5149,-0.93754 -0.25584,0.49391 -0.83997,1.40455 -1.5149,0.93754 z m 73.81845,-2.17541 c -5.63491,-3.36706 -8.66543,-9.59694 -14.35044,-12.90238 -3.36306,-3.15784 -7.22986,-5.22201 -11.64242,-6.54404 -5.06576,-1.92814 -10.4602,-2.40547 -15.85027,-2.10388 -4.39596,0.0281 -8.96684,0.77586 -13.10686,1.66207 -6.67549,2.33697 -11.66627,7.52817 -17.30611,11.56669 -4.10291,0.85962 2.59252,-4.15211 4.10676,-4.8479 3.66397,-3.74391 8.62111,-5.89468 13.22099,-8.17196 4.58521,-0.31042 9.06911,-1.17977 13.62812,-1.74194 4.46773,-0.6841 8.61053,0.86016 12.96292,1.41423 3.95516,1.15578 8.00596,2.23341 11.25376,5.01969 4.49805,2.28554 7.88075,6.07538 11.7405,9.2197 -0.25244,3.04408 9.29269,6.54852 5.34305,7.42972 l 0,0 z m -56.2152,-0.13315 c 2.40137,-3.22747 6.82515,-3.69187 10.1497,-5.57817 2.12051,-1.90475 11.08068,-1.35908 4.63277,0.002 -5.15709,0.5672 -9.35076,3.862 -14.1588,5.45776 l -0.62367,0.11773 0,0 z m -23.81164,-0.86591 c 1.26467,-3.31319 2.21109,1.10597 0,0 z m 4.86012,-0.27283 c 1.73837,-5.792 7.83431,-8.42608 12.21973,-11.94029 4.10457,-4.11217 9.86655,-6.12454 15.61875,-6.16279 5.86472,-1.67519 12.11759,-1.01296 17.91591,0.55452 1.96793,0.77196 9.27937,2.01987 7.69752,3.73172 -4.11716,-1.04219 -7.98473,-3.08541 -12.24412,-3.4519 -5.06828,-1.87042 -10.37554,-0.63928 -15.40692,0.57928 -7.93223,0.76263 -13.92251,6.42316 -19.99471,10.95754 -1.96555,1.80853 -2.99724,5.08002 -5.80616,5.73192 z m 3.99669,-0.79035 c 2.55924,-4.62997 7.55308,-7.03001 11.41123,-10.40266 5.92015,-3.73966 12.99587,-5.28933 19.92197,-5.5048 4.42048,-0.14644 8.64637,1.27762 12.77442,2.41303 2.69198,0.31067 6.77794,4.03443 8.21496,3.12869 -3.76469,-5.36394 5.30333,2.47551 6.75478,3.93414 2.51606,1.02095 5.29151,5.85231 0.90577,3.71411 -2.82711,-4.07816 -7.02265,-6.24711 -11.62652,-7.74517 -7.22156,-3.9929 -15.78736,-4.30761 -23.82777,-3.62502 -6.88238,0.89392 -12.9883,4.65354 -17.90203,9.40832 -2.97552,0.12005 -3.82138,5.05029 -6.62681,4.67936 z m 8.21811,0.39287 c 1.86409,-4.32127 7.91734,-5.69503 10.66857,-8.36424 0.20161,2.53026 3.80602,0.69651 0.29419,2.14462 -4.28319,1.00085 -7.11506,5.12676 -10.96276,6.21962 z m -15.72996,-1.13838 c 1.67322,-4.79052 3.87938,2.74605 0,0 z m 79.0671,-2.00761 c -4.43744,-3.79325 -10.19674,-8.6721 -13.42437,-12.27522 5.11946,-0.20197 7.81636,5.74059 11.42705,8.75106 1.5363,0.36114 6.38309,6.61381 1.99732,3.52416 z m -79.70914,0.0642 c -1.62325,-2.77684 5.11056,-3.24066 0.99795,-0.66857 l -0.45998,0.32036 -0.53797,0.34821 z m 3.86108,-0.56899 c -0.86627,-3.15275 3.02205,0.33618 0,0 z m -1.67816,-2.77566 c -3.03265,-2.69638 5.32639,-4.84868 6.25206,-7.80742 2.1154,-2.48021 5.92969,-1.5524 1.96507,1.01516 -3.25665,1.29289 -6.71977,6.10266 -8.21713,6.79226 z m 78.98786,-0.47548 c -3.66872,-2.89161 -6.43986,-6.7669 -10.30921,-9.43503 -2.67981,-3.99634 -7.21355,-5.08994 -11.14662,-7.28521 -2.51243,-2.78871 -8.88232,-2.05148 -9.76612,-5.05161 4.62316,0.62051 8.87818,2.68605 12.95327,4.86436 5.75577,2.79613 10.3839,7.37442 15.16122,11.52613 0.9192,0.41424 6.98431,8.75075 3.10746,5.38136 z m -53.56311,-2.06004 c 1.43051,-2.28123 9.22499,-2.25824 7.4772,-1.54983 -2.54557,0.26938 -4.83499,2.11032 -7.4772,1.54983 z m -27.44716,-1.5033 c 0.52494,-1.63143 1.75473,0.82961 0,0 z m 1.25197,-1.1127 c -0.11407,-2.85461 8.74667,-5.88757 3.89535,-2.196 -1.21117,0.37329 -2.74233,2.96989 -3.89535,2.196 z m 26.19519,0.35216 c 2.18469,-1.79587 9.87208,-3.58972 8.95801,-1.80622 -2.88889,1.00491 -5.95189,1.33539 -8.95801,1.80622 z m 53.30531,-1.13884 c -3.91543,-5.11382 -9.51116,-8.66727 -14.99977,-11.88081 -6.74545,-3.55043 -14.33293,-7.50804 -22.16942,-5.2707 -4.6492,1.14485 -9.73569,0.19781 -14.11369,2.48626 -1.91682,0.30917 -8.4951,3.79699 -7.54124,1.38778 4.80781,-1.89115 9.50341,-4.46978 14.81088,-4.44737 4.77364,-0.38518 9.50896,-1.74966 14.29802,-1.30359 5.09433,1.00961 10.01854,2.71912 14.51167,5.35695 5.09926,2.04995 9.0452,6.0719 13.49888,9.14611 0.92205,0.43933 4.67616,5.59521 1.70467,4.52537 z m -80.13853,-1.88464 c 0.93477,-4.90076 6.74241,-6.34962 10.39323,-8.81261 5.91867,-3.64093 12.28574,-6.52072 18.77758,-8.96516 4.37503,-1.13446 9.0668,-1.79962 13.52896,-1.03099 -1.81912,1.74523 -7.80516,0.68441 -11.207,1.90381 -8.35948,2.34387 -16.05714,6.6261 -23.51292,10.95313 -2.45728,2.16884 -6.03183,3.99563 -7.97985,5.95182 z m 61.5515,-2.51525 c -2.78962,-4.22034 6.43619,3.50874 0.48125,0.48255 -0.1605,-0.1609 -0.32084,-0.3217 -0.48125,-0.48255 z m -54.9425,0.34612 c 2.88865,-3.58277 7.34267,-5.29752 11.28003,-7.3345 4.69223,0.15011 -3.4042,2.94452 -4.7818,4.10044 -2.05686,1.04498 -4.18298,3.4255 -6.49823,3.23406 z m 5.30449,-0.006 c 3.11856,-2.96257 7.43248,-4.14139 10.90687,-6.60955 4.83565,-2.15359 9.78865,-4.158 15.17277,-4.25487 4.39557,-1.49801 8.54584,-0.0459 12.72618,1.48907 1.96825,0.44854 9.07513,3.3383 3.50198,2.17807 -7.93932,-3.01422 -16.76663,-2.87338 -24.91803,-0.82538 -5.21964,2.04035 -9.98682,4.98323 -14.89695,7.60314 -0.79464,0.29204 -1.64324,0.4639 -2.49282,0.41952 z m 55.0834,-0.20049 c -3.32957,-2.26329 -7.23037,-2.94357 -11.08796,-3.52144 -6.16839,-1.75473 -12.62399,-3.2359 -19.06582,-2.78998 -3.6395,-0.16456 -7.69261,2.54211 -10.94481,1.52888 4.24346,-1.7602 8.93124,-2.5829 13.47206,-2.93257 6.82997,-0.48195 13.30504,1.98029 19.88827,3.35569 1.47063,0.36776 9.88615,3.26372 7.73826,4.35942 z m -67.00089,-2.05886 c 1.49943,-5.22894 8.03495,-6.16985 12.06166,-8.83112 6.88425,-2.8058 13.09178,-7.45443 20.66733,-8.34395 2.01299,-0.83326 10.32852,-0.20379 4.07856,0.85091 -4.45848,0.42033 -8.84504,1.25428 -12.90685,3.29948 -5.45112,1.53888 -9.78876,5.45798 -15.07145,7.42158 -3.09235,1.6447 -5.85637,3.72097 -8.82925,5.6031 z m 79.85076,-0.65646 c -5.32024,-3.42678 -10.72195,-6.67829 -16.35875,-9.54964 -3.92453,-2.16675 -8.43226,-2.84276 -12.52693,-4.54837 -3.41612,0.77597 -8.48889,-0.96473 -10.18208,-2.26824 4.52117,-0.93275 9.55985,1.07463 14.11657,2.04081 4.01915,1.55364 8.25944,2.8832 11.9174,5.0783 1.09171,1.58915 7.22517,3.76275 3.69866,0.32077 -7.01713,-4.11317 -14.49892,-7.75768 -22.64993,-8.98977 -8.49151,-1.21117 -17.49505,-1.06542 -25.31674,2.8324 -2.12785,0.47921 -7.42407,4.94686 -7.77009,1.71715 3.52635,-1.75652 8.06679,-3.33976 12.36353,-4.59982 7.89188,-2.65481 16.6637,-3.11986 24.60617,-0.4291 7.63002,1.62864 14.69034,5.12122 20.94356,9.73934 1.51369,3.83368 8.90359,5.68357 8.26709,9.40239 l -0.4032,-0.19362 -0.70526,-0.5526 0,0 z m 0.17496,-5.10037 c -4.00164,-3.10364 -7.81238,-6.44301 -12.22331,-8.96701 -5.71037,-4.09199 -12.77532,-5.13019 -19.38083,-7.0114 -5.11487,-0.87125 -10.52841,-1.61088 -15.6339,-0.24594 -4.74954,0.81293 -9.31103,2.83135 -14.10596,3.69172 -3.66348,1.55742 -8.05587,5.2822 -11.45235,5.21732 4.52235,-3.49415 9.56293,-6.50708 15.25833,-7.9195 4.73692,-1.60185 9.71169,-1.58445 14.44793,-3.23025 4.46638,0.47563 9.16324,0.46887 13.55881,1.59495 8.80692,1.83992 17.44065,5.43196 24.65417,10.94587 2.14738,0.24003 8.47376,7.94771 4.9323,5.97879 l -0.0551,-0.0545 c 0,0 0,2e-5 0,2e-5 z m -80.04201,0.51787 c 2.32528,-3.92004 7.84619,-3.99524 11.16735,-6.79024 3.28717,-2.41029 3.74149,1.06588 0.25356,1.56736 -3.64446,2.26792 -7.72782,3.03283 -11.42091,5.22288 z m 2.32756,-4.39162 c -0.11986,-3.09033 3.44881,1.47974 0,0 z m 2.88651,-1.55746 c 0.79943,-2.69957 2.48407,0.60583 0,0 z m -3.65698,-0.75389 c 0.47498,-2.63165 9.46216,-5.74413 4.39606,-1.87543 -1.20501,1.04275 -2.72039,2.05527 -4.39606,1.87543 z m 77.24991,-0.25681 c -4.3011,-1.47246 -7.13873,-5.47647 -11.48742,-6.94932 -7.60867,-4.00102 -16.19857,-5.41159 -24.66367,-6.22566 -5.52315,-1.5389 -10.65206,0.81118 -16.12226,0.93192 -4.76817,1.23771 -9.25007,3.41729 -13.95579,4.85293 -0.24028,-3.3191 6.91302,-2.76162 9.41743,-5.06021 3.85173,-1.77538 8.47604,-0.20791 12.34681,-2.22876 4.13155,-0.95964 8.25942,0.1318 12.34515,0.37935 4.06605,2.05711 8.5096,1.40049 12.80218,2.33851 6.31528,1.91917 12.22586,5.18536 17.15764,9.5281 5.87865,2.71679 -3.48015,-4.69382 -5.16052,-6.19167 -4.68642,-4.17221 -11.03834,-5.23573 -16.87158,-6.72914 -6.53022,0.44259 -13.05028,-3.09356 -19.46844,-0.69647 -2.13211,-1.24372 -8.85307,3.39387 -7.85882,0.2735 4.62159,-1.80949 9.73568,-2.29618 14.66295,-2.39757 4.86116,0.22897 9.34843,2.32626 14.27904,1.99763 6.89563,0.0574 13.10838,3.53374 18.0654,8.08803 1.65889,0.54906 10.48244,9.86545 4.5119,8.08883 z m -75.709,-4.17325 c 2.00715,-4.43642 12.026,-4.43072 3.89009,-1.2094 -1.27945,0.45821 -2.60315,0.77485 -3.89009,1.2094 z m 5.07543,-0.10386 c 2.7103,-3.31802 4.37004,1.68721 0,0 z m -5.9743,-2.2356 c 1.34866,-2.99089 2.32526,1.13811 0,0 z m 76.08372,-0.70766 c -0.67664,-3.61625 3.4858,1.04558 0,0 z m -73.73378,-0.71466 c 2.54535,-4.23023 8.76191,-4.68391 12.42517,-7.65008 0.4486,0.67074 -0.77327,3.24827 -1.72186,3.82084 -3.13414,-0.57778 -7.64969,3.00623 -10.70331,3.82924 z m 71.55772,-0.65884 c -1.43612,-4.61148 -7.10304,-5.33288 -10.45226,-8.11756 -4.11569,-1.20881 -8.01081,-2.90457 -11.86031,-4.77461 -4.3019,-1.61738 -8.97887,-1.3353 -13.45744,-2.14137 -4.4137,0.56232 -8.82056,0.84177 -13.19102,2.03767 -5.14675,1.28519 -10.16826,3.4862 -14.53693,6.33277 -3.14638,-2.56769 5.8014,-4.21032 8.01199,-5.77483 4.9438,-1.62106 9.89369,-3.35694 15.16216,-3.6315 5.34748,-0.8422 10.64722,0.29728 15.89397,1.04446 7.28109,2.45228 14.50558,5.29893 21.04798,9.36647 1.84227,0.30119 8.32004,6.1349 3.38186,5.6585 z m -58.23206,-4.01037 c 0.56305,-3.52539 6.98463,-0.45645 1.65707,-0.52247 -0.64251,-0.28437 -1.14664,1.32552 -1.65707,0.52247 z m -11.00468,-0.42773 c -1.2469,-4.38296 7.63833,-1.42613 1.60846,-0.60758 -0.47677,0.27285 -0.98454,1.07923 -1.60846,0.60758 z m 12.60002,-2.31219 c 2.33177,-2.98338 7.60555,-4.14556 11.09279,-4.61329 -0.28129,2.73064 -6.25294,2.07361 -8.48523,4.50849 -0.83574,0.28046 -1.75261,0.33724 -2.60756,0.10482 z m 53.82387,-1.40741 c -6.01652,-3.16291 -12.21848,-5.92399 -18.69288,-8.01904 -4.45476,-1.76219 -9.49794,-1.68384 -14.23878,-1.93886 -4.72532,0.82526 -9.63987,-0.0237 -14.20661,1.50593 -2.65554,0.42484 -9.63623,5.02007 -9.98365,1.96852 4.46224,-0.83783 8.09177,-4.23597 12.79616,-4.24938 5.1057,-0.51687 10.23298,-0.61649 15.30991,-1.02429 4.36981,0.33479 8.48069,0.92399 12.4162,2.89027 4.9195,1.65446 9.54798,4.11211 14.55506,5.51299 0.44576,0.83491 6.48787,4.78162 2.04459,3.35386 z m -65.46529,-0.51814 c 0.24242,-3.4459 10.24073,-5.89325 4.61564,-1.9235 -1.45215,0.83253 -3.03895,1.38221 -4.61564,1.9235 z m 47.95037,-0.57548 c -6.20443,-1.39985 -12.51537,-2.29741 -18.88764,-1.80581 -2.27027,0.43386 -6.17807,-0.99556 -1.73254,-1.38737 5.23683,-0.24525 10.61542,-0.47908 15.78817,0.47735 0.85234,-0.12987 8.27212,2.91424 4.83201,2.71583 z m 12.62701,-5.26763 c -5.02471,-2.74584 -10.59021,-4.16674 -15.91068,-6.17959 -2.16717,-0.32187 -11.13485,-1.09194 -4.70734,-2.00728 5.64592,0.11253 10.65748,3.19215 16.06607,4.50089 1.26574,-0.0439 10.48931,5.16669 4.55195,3.68598 z m -54.86936,-1.17214 c 2.27408,-3.45339 6.99549,-3.82049 10.39409,-5.70018 4.57321,-0.66142 9.51122,-3.15634 13.77499,-2.22855 -5.04824,2.61127 -10.65649,2.47222 -15.75319,4.57356 -2.76178,1.22597 -5.47553,2.58912 -8.41589,3.35517 z m 23.05005,-4.59602 c 1.13612,-3.19241 3.77111,1.30085 0,0 z m 5.97503,-2.11215 c -0.31821,-1.27592 1.05785,0.30809 0,0 z m -2.41802,-0.56912 c 0.6898,-2.30786 0.75669,1.86246 0,0 z m -0.66593,-1.74569 c 0.12486,-1.06649 1.02115,0.64155 0,0 z"
       id="path2830" />
  </g>
</svg>
