<?xml version="1.0" encoding="UTF-8" standalone="no"?>
<svg
   xmlns:dc="http://purl.org/dc/elements/1.1/"
   xmlns:cc="http://creativecommons.org/ns#"
   xmlns:rdf="http://www.w3.org/1999/02/22-rdf-syntax-ns#"
   xmlns:svg="http://www.w3.org/2000/svg"
   xmlns="http://www.w3.org/2000/svg"
   xmlns:xlink="http://www.w3.org/1999/xlink"
   xmlns:sodipodi="http://sodipodi.sourceforge.net/DTD/sodipodi-0.dtd"
   xmlns:inkscape="http://www.inkscape.org/namespaces/inkscape"
   width="48px"
   height="48px"
   id="svg2994"
   version="1.1"
   inkscape:version="1.0.2 (e86c870879, 2021-01-15)"
   sodipodi:docname="open.svg"
   inkscape:export-filename="/home/prs/git/crystalexplorer/icons/open.png"
   inkscape:export-xdpi="352"
   inkscape:export-ydpi="352">
  <defs
     id="defs2996">
    <linearGradient
       id="linearGradient931">
      <stop
         style="stop-color:#e0f6ff;stop-opacity:1"
         offset="0"
         id="stop927" />
      <stop
         style="stop-color:#687eaf;stop-opacity:1"
         offset="1"
         id="stop929" />
    </linearGradient>
    <linearGradient
       id="linearGradient3781">
      <stop
         style="stop-color:#e0f6ff;stop-opacity:1"
         offset="0"
         id="stop3783" />
      <stop
         style="stop-color:#677a80;stop-opacity:1"
         offset="1"
         id="stop3785" />
    </linearGradient>
    <linearGradient
       id="linearGradient3773">
      <stop
         style="stop-color:#ffff00;stop-opacity:1;"
         offset="0"
         id="stop3775" />
      <stop
         style="stop-color:#ff7c00;stop-opacity:0;"
         offset="1"
         id="stop3777" />
    </linearGradient>
    <linearGradient
       inkscape:collect="always"
       xlink:href="#linearGradient931"
       id="linearGradient3787"
       x1="34.809742"
       y1="27.113491"
       x2="25.534451"
       y2="38.584343"
       gradientUnits="userSpaceOnUse"
       gradientTransform="matrix(1.1393407,0,0,1.1580724,-2.2098985,2.5097777)" />
    <linearGradient
       inkscape:collect="always"
       xlink:href="#linearGradient3781"
       id="linearGradient865"
       x1="5.1835494"
       y1="34.7425"
       x2="32.713032"
       y2="4.6887121"
       gradientUnits="userSpaceOnUse"
       gradientTransform="matrix(1.0704125,0,0,1.0900367,-0.59005936,-0.48296696)" />
    <linearGradient
       inkscape:collect="always"
       xlink:href="#linearGradient3781"
       id="linearGradient933"
       gradientUnits="userSpaceOnUse"
       gradientTransform="matrix(1.1393407,0,0,1.1602286,-3.0064395,2.3800222)"
       x1="37.731857"
       y1="14.327522"
       x2="9.0871706"
       y2="31.48962" />
  </defs>
  <sodipodi:namedview
     id="base"
     pagecolor="#ffffff"
     bordercolor="#666666"
     borderopacity="1.0"
     inkscape:pageopacity="0.0"
     inkscape:pageshadow="2"
     inkscape:zoom="13.672733"
     inkscape:cx="34.824771"
     inkscape:cy="24.278394"
     inkscape:current-layer="layer1"
     showgrid="true"
     inkscape:grid-bbox="true"
     inkscape:document-units="px"
     inkscape:snap-global="false"
     inkscape:window-width="1672"
     inkscape:window-height="1128"
     inkscape:window-x="46"
     inkscape:window-y="0"
     inkscape:window-maximized="0"
     inkscape:document-rotation="0">
    <inkscape:grid
       type="xygrid"
       id="grid3002" />
  </sodipodi:namedview>
  <metadata
     id="metadata2999">
    <rdf:RDF>
      <cc:Work
         rdf:about="">
        <dc:format>image/svg+xml</dc:format>
        <dc:type
           rdf:resource="http://purl.org/dc/dcmitype/StillImage" />
        <dc:title />
      </cc:Work>
    </rdf:RDF>
  </metadata>
  <g
     id="layer1"
     inkscape:label="Layer 1"
     inkscape:groupmode="layer">
    <path
       style="fill:url(#linearGradient933);fill-opacity:1;fill-rule:nonzero;stroke:#333333;stroke-width:1.14974;stroke-linecap:round;stroke-linejoin:round;stroke-miterlimit:4;stroke-dasharray:none;stroke-opacity:1"
       d="m 3.6464966,13.32968 c -1.3481978,0 -2.421099,1.092572 -2.421099,2.465487 v 1.994142 c 0,0.171614 0.0033,0.345987 0.035604,0.5076 H 1.2253976 V 46.142397 H 39.962984 V 18.296909 H 15.32474 c 0.0323,-0.161613 0.07121,-0.335986 0.07121,-0.5076 v -1.994142 c 0,-1.372915 -1.108505,-2.465487 -2.456703,-2.465487 z"
       id="rect3004"
       inkscape:connector-curvature="0" />
    <rect
       y="27.853346"
       x="17.10298"
       height="21.148771"
       width="38.861538"
       id="rect3008"
       style="fill:url(#linearGradient3787);fill-opacity:1;fill-rule:nonzero;stroke:#343434;stroke-width:1.18066;stroke-linecap:round;stroke-linejoin:round;stroke-miterlimit:4;stroke-dasharray:none;stroke-opacity:1;paint-order:normal"
       transform="matrix(1,0,-0.31737515,0.94830006,0,0)" />
    <path
       style="fill:none;stroke:#000000;stroke-width:1.8;stroke-linecap:butt;stroke-linejoin:miter;stroke-miterlimit:4;stroke-dasharray:none;stroke-opacity:1"
       d="M 42.714286,10.714286 C 39.601267,3.3936981 33.38176,-2.9443081 25.112511,4.780652 22.250242,7.3453541 21.262019,8.521578 19.290016,10.419916"
       id="path3026"
       inkscape:connector-curvature="0"
       sodipodi:nodetypes="ccc" />
    <path
       style="fill:#000000;fill-opacity:1;fill-rule:nonzero;stroke:none;paint-order:stroke fill markers;stroke-width:1;stroke-miterlimit:4;stroke-dasharray:none"
       d="M 43.751442,6.9895204 44.987516,15.482702 38.63722,9.0049707 z"
       id="rect2998"
       inkscape:connector-curvature="0"
       sodipodi:nodetypes="cccc" />
    <g
       id="g925"
       transform="matrix(0.40935145,0,0,0.40935145,-247.59113,-54.278308)">
      <g
         id="g869">
        <path
           d="m 382.237,420.524 c 11.278,0 24.519,-7.294 29.342,-17.236 l 93.815,-177.539 c 5.615,-10.802 -2.548,-17.239 -17.236,-17.239 H 393.42 v -42.421 c 0,-14.641 -11.91,-26.551 -26.551,-26.551 H 134.943 L 117.736,94.371 c -1.791,-4.69 -6.289,-7.793 -11.313,-7.793 H 12.335 c -3.218,0 -6.312,1.283 -8.588,3.57 -2.27,2.288 -3.535,5.379 -3.517,8.606 L 0.46,166.089 0,394.049 C 0,408.69 11.913,420.6 26.554,420.6 M 369.209,208.516 H 162.634 c -9.522,0 -18.527,7.696 -23.291,17.239 L 54.994,396.39 h -28.44 c -1.289,0 -2.344,-1.052 -2.344,-2.341 V 166.024 l -0.012,-55.23 h 73.884 l 17.209,45.164 c 1.791,4.69 6.286,7.796 11.31,7.796 H 366.87 c 1.288,0 2.34,1.052 2.34,2.341 v 42.421 z"
           id="path867" />
      </g>
      <g
         id="g871" />
      <g
         id="g873" />
      <g
         id="g875" />
      <g
         id="g877" />
      <g
         id="g879" />
      <g
         id="g881" />
      <g
         id="g883" />
      <g
         id="g885" />
      <g
         id="g887" />
      <g
         id="g889" />
      <g
         id="g891" />
      <g
         id="g893" />
      <g
         id="g895" />
      <g
         id="g897" />
      <g
         id="g899" />
    </g>
  </g>
</svg>
