/* XPM */
static char *running_3[] = {
/* columns rows colors chars-per-pixel */
"24 24 54 1",
"  c black",
". c #121212",
"X c #131313",
"o c #181818",
"O c #1A1A1A",
"+ c #262626",
"@ c #2F2F2F",
"# c #383838",
"$ c #3A3A3A",
"% c #404040",
"& c #444444",
"* c #4E4E4E",
"= c #555555",
"- c #565656",
"; c #575757",
": c #5F5F5F",
"> c #626262",
", c #676767",
"< c #6D6D6D",
"1 c #6E6E6E",
"2 c #707070",
"3 c #717171",
"4 c #737373",
"5 c #7C7C7C",
"6 c #7D7D7D",
"7 c #818181",
"8 c #858585",
"9 c #8F8F8F",
"0 c #909090",
"q c #929292",
"w c #9B9B9B",
"e c #A1A1A1",
"r c #A7A7A7",
"t c #AEAEAE",
"y c #B4B4B4",
"u c #BFBFBF",
"i c #C8C8C8",
"p c #C9C9C9",
"a c #CFCFCF",
"s c #D5D5D5",
"d c #E1E1E1",
"f c #E6E6E6",
"g c #EAEAEA",
"h c #ECECEC",
"j c #F3F3F3",
"k c #F4F4F4",
"l c #F5F5F5",
"z c #F9F9F9",
"x c #FAFAFA",
"c c #FBFBFB",
"v c #FCFCFC",
"b c #FDFDFD",
"n c #FEFEFE",
"m c gray100",
/* pixels */
"mmmmmmmmmmmmmmmmmmmmmmmm",
"mmmmmmmmmmmmmmmmmmmmmmmm",
"mmmmmmmmmmmmzmmmmmmmmmmm",
"mmmmmmmmmmmmmmmmmmmmmmmm",
"mmmmmmmmmmmm<&fmmmmmmmmm",
"mmmmmmmmmmmi  6mzmmmmmmm",
"mmmmmmmmmmmfo@smmmmmmmmm",
"mmmmmmmmmmmz#dmmmmmmmmmm",
"mmmmmmmmmzmu.jmmmmmmmmmm",
"mmmmmmmmmzm: yimmmmmmmmm",
"mmmmmmmmmmm8.>9mmmmmmmmm",
"mmmmmmmmmzm0<mzmmmmmmmmm",
"mmmmmmmmmmm20mjmmmmmmmmm",
"mmmmmmmmmzm2*hmmmmmmmmmm",
"mmmmmmmmmzmw#-7gmmmmmmmm",
"mmmmmmmmmmma,motmzmmmmmm",
"mmmmmmmmmmmm>$wmmmmmmmmm",
"mmmmmmmmmmmz+6mzmmmmmmmm",
"mmmmmmmmmmm:-rmmmmmmmmmm",
"mmmmmmmmmm26mzmmmmmmmmmm",
"mmmmmmmmmm-emzmmmmmmmmmm",
"mmmmmmmmmmjdmmmmmmmmmmmm",
"mmmmmmmmmmzmmmmmmmmmmmmm",
"mmmmmmmmmmmmmmmmmmmmmmmm"
};
