/* XPM */
static char *running_2[] = {
/* columns rows colors chars-per-pixel */
"24 24 62 1",
"  c black",
". c #070707",
"X c #0D0D0D",
"o c #131313",
"O c #1B1B1B",
"+ c #3F3F3F",
"@ c #414141",
"# c #424242",
"$ c #434343",
"% c #4D4D4D",
"& c #4E4E4E",
"* c #4F4F4F",
"= c #575757",
"- c #5A5A5A",
"; c #5B5B5B",
": c #646464",
"> c #666666",
", c #686868",
"< c #6C6C6C",
"1 c #6E6E6E",
"2 c #707070",
"3 c #737373",
"4 c #747474",
"5 c #787878",
"6 c #7D7D7D",
"7 c #898989",
"8 c #909090",
"9 c #919191",
"0 c #929292",
"q c #939393",
"w c #949494",
"e c #969696",
"r c #9A9A9A",
"t c #A6A6A6",
"y c #AAAAAA",
"u c #ADADAD",
"i c #AFAFAF",
"p c #B9B9B9",
"a c #BDBDBD",
"s c #C2C2C2",
"d c #CBCBCB",
"f c #CFCFCF",
"g c #D1D1D1",
"h c #D7D7D7",
"j c #DBDBDB",
"k c #DCDCDC",
"l c #DFDFDF",
"z c #E1E1E1",
"x c #E3E3E3",
"c c #E5E5E5",
"v c #EAEAEA",
"b c #EEEEEE",
"n c #F1F1F1",
"m c #F7F7F7",
"M c #F8F8F8",
"N c #F9F9F9",
"B c #FAFAFA",
"V c #FBFBFB",
"C c #FCFCFC",
"Z c #FDFDFD",
"A c #FEFEFE",
"S c gray100",
/* pixels */
"SSSSSSSSSSSSSSSSSSSSSSSS",
"SSSSSSSSSSSSSMSSSSSSSSSS",
"SSSSSSSSSSSSSSSSSSSSSSSS",
"SSSSSSSSSSSSa8MSSSSSSSSS",
"SSSSSSSSSSSxo 5SSSSSSSSS",
"SSSSSSSSSSSjX wSMSSSSSSS",
"SSSSSSSSSSSS$iSSSSSSSSSS",
"SSSSSSSSSMSy dSMSSSSSSSS",
"SSSSSSSSSSp@.>SSSSSSSSSS",
"SSSSSSSSMS,&;;&7SSSSSSSS",
"SSSSSSSSSSS@;SfvSSSSSSSS",
"SSSSSSSSSSS7,SMSSSSSSSSS",
"SSSSSSSSSSS38SMSSSSSSSSS",
"SSSSSSSSSMS;6SSSSSSSSSSS",
"SSSSSSSSMMS,OjSSSSSSSSSS",
"SSSSSSSSSSS38>SMSSSSSSSS",
"SSSSSSSh8wr@x=jSSSSSSSSS",
"SSSSSMS3<twst:SMSSSSSSSS",
"SSSSSSSdbSSM%jSSSSSSSSSS",
"SSSSSSSSSMSuOjSSSSSSSSSS",
"SSSSSSSSSSSMzbSSSSSSSSSS",
"SSSSSSSSSSSSSSSSSSSSSSSS",
"SSSSSSSSSSSSSSSSSSSSSSSS",
"SSSSSSSSSSSSSSSSSSSSSSSS"
};
