/* XPM */
static char *running_5[] = {
/* columns rows colors chars-per-pixel */
"24 24 54 1",
"  c black",
". c #050505",
"X c #0B0B0B",
"o c #121212",
"O c #191919",
"+ c #1C1C1C",
"@ c #1D1D1D",
"# c #232323",
"$ c #252525",
"% c #292929",
"& c #2F2F2F",
"* c #363636",
"= c #383838",
"- c #444444",
"; c #464646",
": c #626262",
"> c #656565",
", c #6B6B6B",
"< c #6E6E6E",
"1 c #6F6F6F",
"2 c #7D7D7D",
"3 c #848484",
"4 c #8B8B8B",
"5 c #8D8D8D",
"6 c #8E8E8E",
"7 c #8F8F8F",
"8 c #919191",
"9 c #949494",
"0 c #979797",
"q c #999999",
"w c #B7B7B7",
"e c #BABABA",
"r c #C8C8C8",
"t c #CDCDCD",
"y c #CFCFCF",
"u c #D5D5D5",
"i c #D8D8D8",
"p c #E2E2E2",
"a c #E3E3E3",
"s c #E6E6E6",
"d c #E7E7E7",
"f c #E8E8E8",
"g c #EAEAEA",
"h c #F3F3F3",
"j c #F5F5F5",
"k c #F6F6F6",
"l c #F7F7F7",
"z c #F8F8F8",
"x c #FAFAFA",
"c c #FBFBFB",
"v c #FCFCFC",
"b c #FDFDFD",
"n c #FEFEFE",
"m c gray100",
/* pixels */
"mmmmmmmmmmmmmmmmmmmmmmmm",
"mmmmmmmmmmmmmmmmmmmmmmmm",
"mmmmmmmmmmmmxmmmmmmmmmmm",
"mmmmmmmmmmmmmmmmmmmmmmmm",
"mmmmmmmmmmmm,-smmmmmmmmm",
"mmmmmmmmmmmr  2mxmmmmmmm",
"mmmmmmmmmxmsO&umxmmmmmmm",
"mmmmmmmmmmmx*pmmmmmmmmmm",
"mmmmmmmmmxm6+mmmmmmmmmmm",
"mmmmmmmmmmsX$mmmmmmmmmmm",
"mmmmmmmmxmy% 3mxmmmmmmmm",
"mmmmmmmmmxm6,mxmmmmmmmmm",
"mmmmmmmmmxm,6mmmmmmmmmmm",
"mmmmmmmmmmm,qmxmmmmmmmmm",
"mmmmmmmmmxm0osmmmmmmmmmm",
"mmmmmmmmmmmy#:jmmmmmmmmm",
"mmmmmmmmmmmh:*4mxmmmmmmm",
"mmmmmmmmmmh0O6hmmmmmmmmm",
"mmmmmmmmxme 8mmmmmmmmmmm",
"mmmmmmmmmms-jmmmmmmmmmmm",
"mmmmmmmmxmw%pmxmmmmmmmmm",
"mmmmmmmmmmmugmmmmmmmmmmm",
"mmmmmmmmmmmmmmmmmmmmmmmm",
"mmmmmmmmmmmmmmmmmmmmmmmm"
};
