/* XPM */
static char *running_4[] = {
/* columns rows colors chars-per-pixel */
"24 24 61 1",
"  c black",
". c #010101",
"X c #181818",
"o c #1B1B1B",
"O c #212121",
"+ c #232323",
"@ c #242424",
"# c #292929",
"$ c #2D2D2D",
"% c #2F2F2F",
"& c #414141",
"* c #444444",
"= c #4E4E4E",
"- c #565656",
"; c #5A5A5A",
": c #5F5F5F",
"> c #656565",
", c #6C6C6C",
"< c #6D6D6D",
"1 c #6E6E6E",
"2 c #6F6F6F",
"3 c #767676",
"4 c #7D7D7D",
"5 c #7E7E7E",
"6 c #7F7F7F",
"7 c #808080",
"8 c #848484",
"9 c #858585",
"0 c #8B8B8B",
"q c #8D8D8D",
"w c #929292",
"e c #959595",
"r c #979797",
"t c #9E9E9E",
"y c #A8A8A8",
"u c #ABABAB",
"i c #B8B8B8",
"p c #B9B9B9",
"a c #C0C0C0",
"s c #C5C5C5",
"d c #C7C7C7",
"f c #D4D4D4",
"g c #D5D5D5",
"h c #DBDBDB",
"j c #DCDCDC",
"k c #DDDDDD",
"l c #E0E0E0",
"z c #E3E3E3",
"x c #E6E6E6",
"c c #E8E8E8",
"v c #E9E9E9",
"b c #EEEEEE",
"n c #F5F5F5",
"m c #F6F6F6",
"M c #F7F7F7",
"N c #FAFAFA",
"B c #FBFBFB",
"V c #FCFCFC",
"C c #FDFDFD",
"Z c #FEFEFE",
"A c gray100",
/* pixels */
"AAAAAAAAAAAAAAAAAAAAAAAA",
"AAAAAAAAAAAAAAAAAAAAAAAA",
"AAAAAAAAAAAANAAAAAAAAAAA",
"AAAAAAAAAAAAAAAAAAAAAAAA",
"AAAAAAAAAAAA,*xAAAAAAAAA",
"AAAAAAAAAAAd  4ANAAAAAAA",
"AAAAAAAAAAAvo$gANAAAAAAA",
"AAAAAAAAANAv+hAAAAAAAAAA",
"AAAAAAAAAAA- iAAAAAAAAAA",
"AAAAAAAANAy+X:esAAAAAAAA",
"AAAAAAAAAAA,&44xAAAAAAAA",
"AAAAAAAAANAw,ANAAAAAAAAA",
"AAAAAAAAANA2qAMAAAAAAAAA",
"AAAAAAAAANA,tANAAAAAAAAA",
"AAAAAAAAAMA6>ANAAAAAAAAA",
"AAAAAAAAAAAi@AAAAAAAAAAA",
"AAAAAAAAM69q sANAAAAAAAA",
"AAAAAAAAg=i3$jAAAAAAAAAA",
"AAAAAAAAMkAeqANAAAAAAAAA",
"AAAAAAAAAAA;hAAAAAAAAAAA",
"AAAAAAAAAAv#yANAAAAAAAAA",
"AAAAAAAAAAAgfAAAAAAAAAAA",
"AAAAAAAAAAAAAAAAAAAAAAAA",
"AAAAAAAAAAANAAAAAAAAAAAA"
};
