/* XPM */
static char *running_1[] = {
/* columns rows colors chars-per-pixel */
"24 24 72 1",
"  c black",
". c #0D0D0D",
"X c #171717",
"o c #262626",
"O c #292929",
"+ c #363636",
"@ c #373737",
"# c #3B3B3B",
"$ c #3E3E3E",
"% c #414141",
"& c #454545",
"* c #464646",
"= c #484848",
"- c #545454",
"; c #555555",
": c #565656",
"> c #585858",
", c #656565",
"< c #6A6A6A",
"1 c #6C6C6C",
"2 c #707070",
"3 c #747474",
"4 c #767676",
"5 c #777777",
"6 c #787878",
"7 c #808080",
"8 c #848484",
"9 c #858585",
"0 c #888888",
"q c #8C8C8C",
"w c #8F8F8F",
"e c #979797",
"r c #9C9C9C",
"t c #ABABAB",
"y c #ACACAC",
"u c #ADADAD",
"i c #B0B0B0",
"p c #B4B4B4",
"a c #B7B7B7",
"s c #BCBCBC",
"d c #BDBDBD",
"f c #C1C1C1",
"g c #C5C5C5",
"h c #C6C6C6",
"j c #C8C8C8",
"k c #CBCBCB",
"l c #D1D1D1",
"z c #D8D8D8",
"x c #D9D9D9",
"c c #DBDBDB",
"v c #DCDCDC",
"b c #DFDFDF",
"n c #E2E2E2",
"m c #E3E3E3",
"M c #E6E6E6",
"N c #E8E8E8",
"B c #EAEAEA",
"V c #ECECEC",
"C c #EFEFEF",
"Z c #F2F2F2",
"A c #F4F4F4",
"S c #F5F5F5",
"D c #F6F6F6",
"F c #F7F7F7",
"G c #F8F8F8",
"H c #F9F9F9",
"J c #FAFAFA",
"K c #FBFBFB",
"L c #FCFCFC",
"P c #FDFDFD",
"I c #FEFEFE",
"U c gray100",
/* pixels */
"UUUUUUUUUUUUUUUUUUUUUUUU",
"UUUUUUUUUUUUUJUUUUUUUUUU",
"UUUUUUUUUUUUUUUUUUUUUUUU",
"UUUUUUUUUUUU6OjUJUUUUUUU",
"UUUUUUUUUUUn. >UUUUUUUUU",
"UUUUUUUUUUJU#ogUJUUUUUUU",
"UUUUUUUUUUUU@pUUUUUUUUUU",
"UUUUUUUUUC8&X@amyUUUUUUU",
"UUUUUUUJU8,n%v-=eUUUUUUU",
"UUUUUUUJUt8n$UJJUUUUUUUU",
"UUUUUUUUUCMi-UJUJUUUUUUU",
"UUUUUUUUUJUw<UJUUUUUUUUU",
"UUUUUJUUUJU1qUJUUUUUUUUU",
"UUUUUUUUJUj@&gUUUUUUUUUU",
"UUUUUslSUy$nc&8UUUUUUUUU",
"UUJUe%<---MUUU-fUUUUUUUU",
"UUUUjMUScSUJJU6sUUUUUUUU",
"UUUUUUUUUJUUJU6fUUUUUUUU",
"UUUUJUUUUUUUJU31JUUUUUUU",
"UUUUUUUUUUUUUUc8MUUUUUUU",
"UUUUUUUUUUUUUUUUUUUUUUUU",
"UUUUUUUUUUUUUUUJUUUUUUUU",
"UUUUUUUUUUUUUUUUUUUUUUUU",
"UUUUUUUUUUUUUUUUUUUUUUUU"
};
