<?xml version="1.0" encoding="UTF-8" standalone="no"?>
<svg
   xmlns:dc="http://purl.org/dc/elements/1.1/"
   xmlns:cc="http://creativecommons.org/ns#"
   xmlns:rdf="http://www.w3.org/1999/02/22-rdf-syntax-ns#"
   xmlns:svg="http://www.w3.org/2000/svg"
   xmlns="http://www.w3.org/2000/svg"
   xmlns:sodipodi="http://sodipodi.sourceforge.net/DTD/sodipodi-0.dtd"
   xmlns:inkscape="http://www.inkscape.org/namespaces/inkscape"
   width="48px"
   height="48px"
   id="svg2985"
   version="1.1"
   inkscape:version="1.0.2 (e86c870879, 2021-01-15)"
   sodipodi:docname="undo_measurement.svg"
   inkscape:export-filename="/home/prs/git/crystalexplorer/icons/undo_measurement.png"
   inkscape:export-xdpi="352"
   inkscape:export-ydpi="352">
  <defs
     id="defs2987">
    <linearGradient
       id="linearGradient3787">
      <stop
         style="stop-color:#ffffff;stop-opacity:1;"
         offset="0"
         id="stop3789" />
      <stop
         style="stop-color:#008302;stop-opacity:1;"
         offset="1"
         id="stop3791" />
    </linearGradient>
    <filter
       inkscape:collect="always"
       style="color-interpolation-filters:sRGB"
       id="filter841"
       x="-0.040575062"
       width="1.0811501"
       y="-0.046463282"
       height="1.0929266">
      <feGaussianBlur
         inkscape:collect="always"
         stdDeviation="0.72430966"
         id="feGaussianBlur843" />
    </filter>
  </defs>
  <sodipodi:namedview
     id="base"
     pagecolor="#ffffff"
     bordercolor="#666666"
     borderopacity="1.0"
     inkscape:pageopacity="0.0"
     inkscape:pageshadow="2"
     inkscape:zoom="7"
     inkscape:cx="-7.1428571"
     inkscape:cy="13.013615"
     inkscape:current-layer="layer1"
     showgrid="true"
     inkscape:grid-bbox="true"
     inkscape:document-units="px"
     inkscape:snap-global="false"
     inkscape:window-width="2140"
     inkscape:window-height="1274"
     inkscape:window-x="43"
     inkscape:window-y="0"
     inkscape:window-maximized="0"
     inkscape:document-rotation="0">
    <inkscape:grid
       type="xygrid"
       id="grid2993" />
  </sodipodi:namedview>
  <metadata
     id="metadata2990">
    <rdf:RDF>
      <cc:Work
         rdf:about="">
        <dc:format>image/svg+xml</dc:format>
        <dc:type
           rdf:resource="http://purl.org/dc/dcmitype/StillImage" />
        <dc:title />
      </cc:Work>
    </rdf:RDF>
  </metadata>
  <g
     id="layer1"
     inkscape:label="Layer 1"
     inkscape:groupmode="layer">
    <path
       inkscape:connector-curvature="0"
       id="path3795"
       d="M 22.241656,6.0939069 C 12.750581,6.3582689 4.6307956,13.373004 3.1166556,22.968907 h -3.12499998 l 6.99999998,14 7.0000004,-14 h -3.25 c 1.549243,-5.981141 7.328051,-10.033426 13.625,-9.25 6.845144,0.851629 11.726629,7.092356 10.875,13.9375 -0.487545,3.918742 -2.81461,7.365108 -6.25,9.3125 l 3.71875,6.53125 c 5.501119,-3.118375 9.188041,-8.662385 9.96875,-14.9375 1.363721,-10.961188 -6.413812,-20.9487791 -17.375,-22.3125001 -1.027611,-0.127849 -2.058247,-0.184222 -3.0625,-0.15625 z"
       style="fill:#808080;fill-opacity:1;fill-rule:nonzero;stroke:none;stroke-width:1.5;stroke-miterlimit:4;stroke-dasharray:none;stroke-opacity:1;filter:url(#filter841)"
       transform="matrix(1.0477774,0,0,1.0770588,0.6021704,-1.2636041)" />
    <path
       sodipodi:type="arc"
       style="fill:#967878;fill-opacity:1;fill-rule:nonzero;stroke:#000000;stroke-width:1.5;stroke-miterlimit:4;stroke-opacity:1;stroke-dasharray:none"
       id="path2995"
       sodipodi:cx="31"
       sodipodi:cy="35"
       sodipodi:rx="20"
       sodipodi:ry="20"
       d="m 11.153013,32.530766 a 20,20 0 1 1 29.709811,19.86822 L 31,35 z"
       transform="translate(7,-73)"
       sodipodi:start="3.2653702"
       sodipodi:end="7.3382848" />
    <path
       sodipodi:end="7.3382848"
       sodipodi:start="3.2653702"
       transform="matrix(0.62448925,0,0,0.62448925,18.640833,-59.367339)"
       d="m 11.153013,32.530766 a 20,20 0 1 1 29.709811,19.86822 L 31,35 z"
       sodipodi:ry="20"
       sodipodi:rx="20"
       sodipodi:cy="35"
       sodipodi:cx="31"
       id="path2997"
       style="fill:#2c7878;fill-opacity:1;fill-rule:nonzero;stroke:none"
       sodipodi:type="arc" />
    <path
       style="fill:#009f00;fill-opacity:1;fill-rule:nonzero;stroke:#000000;stroke-width:1.6326;stroke-miterlimit:4;stroke-dasharray:none;stroke-opacity:1"
       d="M 25.199951,2.7273238 C 15.126478,3.0223866 6.5084404,10.851757 4.9013887,21.56205 H 1.5846303 L 9.0141692,37.187896 16.443709,21.56205 H 12.99428 c 1.644309,-6.675742 7.77772,-11.198627 14.461067,-10.32422 7.26518,0.95053 12.446206,7.916005 11.542319,15.556088 -0.517462,4.373833 -2.987322,8.220432 -6.633517,10.393978 l 3.946943,7.289737 C 42.149774,40.997115 46.062936,34.809269 46.891551,27.805413 48.338954,15.571281 40.08417,4.4238119 28.450374,2.9017194 27.359706,2.759023 26.265828,2.6961033 25.199951,2.7273238 Z"
       id="path3774"
       inkscape:connector-curvature="0" />
  </g>
</svg>
